<?xml version="1.0" standalone="no"?>
<!DOCTYPE svg PUBLIC "-//W3C//DTD SVG 20010904//EN"
 "http://www.w3.org/TR/2001/REC-SVG-20010904/DTD/svg10.dtd">
<svg version="1.0" xmlns="http://www.w3.org/2000/svg"
 width="2048.000000pt" height="1365.000000pt" viewBox="0 0 2048.000000 1365.000000"
 preserveAspectRatio="xMidYMid meet">

<g transform="translate(0.000000,1365.000000) scale(0.100000,-0.100000)"
fill="#000000" stroke="none">
<path d="M0 6825 l0 -6825 4298 0 4297 0 -1 35 c-1 19 2 38 7 41 5 3 9 -13 9
-35 l0 -41 5935 0 5935 0 0 6825 0 6825 -10240 0 -10240 0 0 -6825z m13141
4413 c19 -13 72 -34 119 -46 102 -27 172 -62 224 -111 l39 -36 -7 28 c-6 26
-5 27 13 17 48 -25 71 -113 34 -127 -9 -4 -19 -1 -21 5 -7 21 -33 43 -43 36
-5 -3 4 -19 20 -36 33 -34 31 -52 -9 -73 -24 -12 -29 -23 -35 -67 -4 -29 -14
-84 -22 -121 -8 -38 -13 -70 -11 -72 5 -5 97 36 161 73 61 34 170 127 175 149
2 7 10 13 17 13 8 0 22 16 31 35 16 35 16 37 -5 59 -14 15 -21 33 -19 48 l3
23 27 -26 c32 -32 51 -97 42 -145 -17 -93 -180 -201 -392 -260 l-63 -18 -34
-70 c-69 -147 -171 -279 -279 -365 -121 -97 -188 -79 -361 94 -82 82 -112 121
-163 211 -51 89 -67 111 -82 107 -29 -8 -189 36 -267 73 -39 19 -87 49 -106
67 -35 32 -61 96 -50 123 8 22 23 17 23 -9 0 -48 48 -96 140 -139 89 -42 270
-99 270 -84 0 6 -12 49 -25 95 -14 47 -25 95 -25 108 0 12 -20 45 -45 73 -49
55 -57 90 -29 125 16 19 16 19 12 -7 -4 -20 -1 -25 10 -21 12 5 12 3 2 -14
-11 -16 -10 -24 5 -46 9 -15 20 -27 24 -27 3 0 4 27 3 59 -4 58 -3 61 40 107
52 57 149 105 282 140 50 13 111 30 136 38 130 42 192 46 241 14z m-1495
-1255 c4 -14 4 -215 0 -447 -4 -232 -7 -436 -7 -454 1 -18 -3 -31 -7 -28 -5 3
-12 74 -16 158 -7 169 -7 778 0 790 10 16 24 7 30 -19z m2939 -983 c-27 -5
-66 -8 -85 -8 -32 1 -31 2 10 8 25 4 63 7 85 7 38 0 37 0 -10 -7z m-147 -17
c-10 -2 -26 -2 -35 0 -10 3 -2 5 17 5 19 0 27 -2 18 -5z m-138 -13 c-25 -4
-85 -10 -135 -13 l-90 -5 90 13 c50 7 110 12 135 13 l45 0 -45 -8z m-262 -27
c-10 -2 -28 -2 -40 0 -13 2 -5 4 17 4 22 1 32 -1 23 -4z m-91 -9 c-3 -3 -12
-4 -19 -1 -8 3 -5 6 6 6 11 1 17 -2 13 -5z m156 -361 c-7 -2 -19 -2 -25 0 -7
3 -2 5 12 5 14 0 19 -2 13 -5z m-176 -9 c-3 -3 -12 -4 -19 -1 -8 3 -5 6 6 6
11 1 17 -2 13 -5z m-3462 -1733 c50 -47 56 -57 47 -76 -9 -20 -6 -25 35 -45
45 -22 64 -46 47 -59 -16 -10 -35 -124 -23 -132 7 -4 6 -8 -4 -12 -8 -3 -33
-40 -56 -82 -47 -85 -146 -192 -203 -218 -34 -16 -40 -16 -66 -3 -49 25 -139
132 -178 210 -28 59 -39 97 -50 178 -7 57 -14 108 -14 113 0 15 41 38 80 45
21 3 35 11 36 20 1 8 2 22 2 32 1 9 25 33 53 53 42 30 64 38 118 44 82 8 104
0 176 -68z m1065 -435 c1 -178 -2 -272 -9 -279 -6 -6 -11 -25 -11 -41 0 -17
-5 -38 -11 -46 -7 -11 -8 4 -3 50 4 36 6 148 5 250 -1 102 1 237 5 300 12 183
22 78 24 -234z m-105 202 c9 -174 4 -290 -12 -296 -10 -3 -13 44 -13 212 0
121 4 216 9 216 5 0 12 -60 16 -132z m7405 101 c7 -11 9 -23 6 -26 -8 -9 -36
17 -36 33 0 21 18 17 30 -7z m76 -107 c-4 -3 -14 2 -24 12 -16 18 -16 18 6 6
13 -6 21 -14 18 -18z m546 -90 c48 -59 131 -158 183 -221 53 -62 94 -116 91
-119 -4 -3 -7 -3 -9 -1 -1 2 -34 40 -73 84 -96 109 -284 336 -295 357 -23 43
22 -1 103 -100z m-8542 67 c0 -11 -69 -43 -77 -35 -4 4 38 29 75 45 1 1 2 -4
2 -10z m-900 -27 c0 -4 -16 -6 -35 -4 -19 2 -35 6 -35 8 0 2 16 4 35 4 19 0
35 -4 35 -8z m8909 -628 c41 -60 39 -63 -9 -15 -22 22 -40 47 -40 56 0 23 14
11 49 -41z m-347 -60 c23 -12 46 -15 80 -11 l49 6 -4 -60 c-3 -33 -1 -75 3
-93 7 -31 2 -76 -15 -153 -6 -27 -5 -33 9 -33 10 0 14 -5 11 -10 -4 -6 -15 -8
-25 -5 -12 4 -34 -5 -61 -24 -35 -26 -50 -30 -98 -30 -50 1 -58 4 -68 26 -16
33 -6 81 19 94 11 6 17 13 14 16 -3 3 9 17 27 30 43 32 49 52 25 91 -14 23
-17 37 -10 44 12 12 4 41 -9 32 -5 -3 -9 -1 -9 5 0 5 4 12 9 15 5 3 7 15 4 26
-5 20 2 50 12 50 3 0 20 -7 37 -16z m577 -75 c-6 -4 -8 -12 -5 -18 4 -6 3 -11
-3 -11 -13 0 -41 53 -41 76 0 14 6 12 30 -11 20 -19 26 -31 19 -36z m291 -35
c0 -9 -5 -14 -12 -12 -18 6 -21 28 -4 28 9 0 16 -7 16 -16z m210 -204 c-1 -24
-1 -24 -15 -5 -8 11 -18 25 -23 31 -5 6 -13 20 -16 31 -4 12 -16 23 -26 26
-11 3 -20 14 -20 24 0 10 -3 23 -7 29 -5 5 18 -17 49 -51 39 -41 58 -68 58
-85z m-765 -18 c-5 -2 -19 -14 -30 -27 -18 -20 -23 -21 -50 -9 -19 8 -23 13
-12 14 12 0 17 9 18 33 1 23 3 26 6 10 5 -27 25 -31 22 -5 -1 9 1 34 6 55 l8
39 21 -54 c13 -32 18 -54 11 -56z m582 41 c12 -18 19 -21 29 -12 8 6 14 18 14
25 0 8 6 14 14 14 8 0 20 2 28 5 14 5 54 -52 64 -91 5 -17 11 -23 22 -19 8 3
19 0 24 -7 12 -19 10 -28 -7 -28 -9 0 -12 -6 -9 -17 3 -10 -4 -1 -16 20 -31
57 -76 48 -60 -13 4 -15 12 -24 22 -22 9 1 19 -5 22 -14 5 -13 9 -14 21 -4 25
21 19 -21 -12 -80 -26 -50 -26 -53 -9 -66 16 -11 16 -15 5 -26 -8 -8 -18 -13
-24 -13 -24 0 -88 63 -106 103 -10 23 -26 45 -36 49 -10 3 -26 13 -35 21 -25
21 -43 10 -83 -53 -20 -30 -43 -55 -52 -55 -9 0 -30 12 -45 27 -26 25 -28 25
-28 6 0 -11 9 -28 20 -38 11 -10 20 -26 20 -36 0 -19 45 -59 67 -59 7 0 24 7
38 16 22 14 24 14 35 -6 6 -11 10 -40 8 -63 -3 -42 -4 -42 -68 -68 l-65 -26
-7 -54 c-3 -30 -6 -83 -7 -118 -1 -50 -4 -61 -14 -53 -25 21 -111 25 -145 8
-35 -18 -40 -12 -18 20 13 18 13 32 -1 110 -18 106 -7 220 27 267 17 22 18 31
10 48 -6 11 -10 32 -8 47 2 20 10 28 31 32 39 7 116 72 161 135 13 19 21 24
29 16 13 -13 56 -14 74 -3 6 4 14 19 16 32 3 14 11 45 18 70 11 37 14 41 17
21 2 -14 11 -35 19 -48z m193 32 c0 -8 -4 -15 -10 -15 -5 0 -10 7 -10 15 0 8
5 15 10 15 6 0 10 -7 10 -15z m-13750 -25 c0 -22 -8 -25 -30 -10 -13 9 -13 11
0 20 22 15 30 12 30 -10z m13420 -10 c0 -5 -2 -10 -4 -10 -3 0 -8 5 -11 10 -3
6 -1 10 4 10 6 0 11 -4 11 -10z m-900 -90 c6 -11 8 -20 5 -20 -3 0 -14 9 -25
20 -15 15 -16 20 -5 20 8 0 19 -9 25 -20z m-13600 -14 c0 -8 -7 -17 -16 -20
-25 -10 -30 2 -8 19 24 18 24 18 24 1z m187 -26 c-30 -40 -41 -49 -51 -43 -6
4 -16 8 -23 9 -6 1 -19 7 -30 12 -17 10 -17 11 2 17 11 4 27 10 35 15 8 5 29
8 47 7 26 -2 29 -5 20 -17z m13913 11 c0 -20 -59 -71 -82 -71 -37 0 -119 31
-112 42 4 6 35 7 84 3 73 -7 78 -6 85 14 6 21 25 30 25 12z m-12145 -20 c3 -6
15 -8 27 -6 12 3 27 0 35 -6 9 -9 17 -8 28 1 12 10 15 10 15 0 0 -9 11 -11 39
-6 25 4 52 1 75 -9 19 -8 49 -15 65 -15 16 0 33 -5 36 -10 4 -6 11 -8 16 -5 5
4 9 -1 9 -10 0 -9 5 -13 11 -9 7 4 10 -1 7 -12 -3 -17 -13 -19 -96 -16 -72 2
-103 7 -135 24 -23 12 -61 21 -84 21 -23 0 -40 4 -37 9 3 4 -6 8 -20 8 -16 0
-26 6 -26 15 0 8 -4 15 -10 15 -5 0 -10 5 -10 10 0 13 47 13 55 1z m-1549 -49
c-18 -16 -18 -16 -6 6 6 13 14 21 18 18 3 -4 -2 -14 -12 -24z m13764 -7 c0
-14 9 -33 20 -42 41 -36 17 -103 -45 -123 l-35 -12 0 -116 c-1 -116 -1 -117
-18 -85 -26 49 -72 95 -90 91 -14 -3 -17 -19 -20 -109 -2 -89 1 -115 18 -160
22 -56 64 -109 87 -109 9 0 13 -16 13 -54 0 -45 -5 -60 -27 -88 -34 -39 -75
-77 -86 -78 -4 0 -7 38 -6 85 1 74 -1 88 -17 100 -25 19 -31 18 -43 -3 -14
-26 -68 -40 -133 -34 l-55 4 -1 74 c-2 81 -7 74 63 79 24 2 97 25 107 34 11
10 38 204 38 273 0 79 -11 102 -60 122 -49 19 -56 35 -41 87 17 56 37 63 113
39 94 -29 125 -27 162 14 37 42 56 45 56 11z m-12419 -40 c18 4 29 3 29 -4 0
-12 -58 -15 -84 -5 -9 3 -16 10 -16 15 0 6 9 5 21 -1 11 -6 33 -8 50 -5z
m-1356 -23 c6 -9 13 -30 16 -45 6 -24 3 -30 -18 -38 -13 -5 -28 -9 -32 -9 -15
0 -39 67 -34 94 5 24 9 27 32 21 14 -4 31 -14 36 -23z m-405 -51 c0 -34 -4
-42 -29 -54 -27 -14 -30 -13 -34 5 -5 16 -9 18 -26 9 -28 -16 -31 -14 -18 12
11 24 71 66 95 67 7 0 12 -14 12 -39z m2223 17 c21 1 18 -20 -4 -23 -7 -1 -36
6 -64 17 l-50 18 50 -6 c28 -3 58 -6 68 -6z m-1165 -18 c8 0 12 -16 12 -46 0
-37 -6 -53 -30 -81 -30 -34 -40 -61 -18 -47 8 5 9 2 3 -12 -4 -10 -9 -35 -11
-54 -2 -19 -12 -42 -22 -50 -22 -18 -41 -51 -52 -91 -9 -30 6 -44 37 -32 11 5
14 3 8 -6 -5 -9 -19 -11 -41 -8 -34 6 -55 -6 -32 -17 7 -3 4 -5 -7 -3 -12 1
-20 10 -20 22 0 11 -8 21 -17 23 -9 2 -20 12 -23 22 -3 11 -12 19 -18 17 -7
-1 -13 10 -15 26 -2 15 -8 25 -13 22 -5 -4 -9 -4 -9 -1 0 3 14 13 31 21 21 11
29 21 24 32 -3 9 0 20 7 25 10 6 10 8 1 8 -7 0 -13 7 -13 16 0 8 -4 13 -9 9
-5 -3 -12 -1 -16 5 -3 5 -3 10 2 10 4 0 17 13 27 28 l20 27 -23 -19 c-12 -11
-39 -26 -59 -33 -42 -14 -69 -17 -35 -3 15 6 21 15 17 24 -5 12 -11 13 -24 6
-26 -14 -28 -13 -32 13 l-3 22 -23 -23 c-27 -27 -39 -23 -23 6 15 27 14 32 -3
26 -10 -4 -14 1 -13 15 1 12 6 21 12 21 5 0 20 3 32 6 13 4 28 -1 40 -13 33
-30 61 -43 98 -43 28 0 35 4 35 20 0 11 -7 20 -15 20 -8 0 -15 4 -15 9 0 5 -3
17 -7 27 -6 16 2 17 95 11 96 -5 134 5 77 19 -14 3 -25 10 -25 14 0 11 30 19
55 14 11 -2 26 -4 33 -4z m1222 0 c0 -5 -4 -10 -9 -10 -6 0 -13 5 -16 10 -3 6
1 10 9 10 9 0 16 -4 16 -10z m-2025 -23 c10 -8 15 -19 11 -25 -9 -15 -36 -16
-36 -2 0 6 -9 10 -20 10 -20 0 -26 11 -13 23 11 11 38 8 58 -6z m2009 -16 c8
-13 85 -23 103 -12 11 5 28 4 51 -6 19 -8 40 -12 47 -9 18 6 85 -12 85 -24 0
-5 7 -7 15 -4 12 5 15 -1 14 -27 -1 -19 -3 -26 -6 -16 -4 14 -16 17 -72 17
-37 0 -71 3 -75 7 -3 4 -28 8 -54 10 -26 2 -69 11 -97 20 -27 10 -58 16 -68
14 -26 -4 -52 19 -35 30 17 11 85 11 92 0z m-1863 -41 c-21 -22 -24 -18 -10
14 8 17 15 22 20 15 3 -6 -1 -19 -10 -29z m2825 27 c3 -3 21 -3 39 0 35 6 49
-5 39 -31 -6 -17 -39 -22 -48 -8 -3 5 -20 9 -38 10 -18 0 -34 6 -36 11 -2 6
-10 11 -18 11 -9 0 -13 3 -11 8 6 8 64 8 73 -1z m-352 -24 c4 -5 22 -8 39 -9
59 -1 157 -16 157 -25 0 -4 17 -7 38 -6 20 0 74 -5 120 -12 89 -15 105 -10
122 34 8 20 8 20 15 0 14 -42 24 -50 81 -63 32 -7 74 -17 92 -23 18 -6 48 -12
65 -14 18 -2 73 -8 122 -14 50 -6 94 -11 98 -11 5 0 5 -4 2 -10 -3 -5 -1 -10
4 -10 6 0 11 -7 11 -15 0 -9 9 -15 23 -15 13 0 27 -4 32 -9 6 -5 21 -11 35
-13 14 -1 26 -10 28 -19 2 -13 -4 -16 -30 -14 -18 1 -36 -2 -39 -7 -4 -6 -12
-7 -19 -3 -9 6 -9 10 1 17 14 10 2 7 -38 -9 -11 -4 -14 -3 -9 5 5 9 0 9 -21 1
-26 -10 -67 -12 -123 -6 -19 1 -28 11 -37 37 l-11 35 -4 -55 c-3 -54 -4 -55
-33 -54 -65 3 -71 6 -37 15 29 9 32 13 32 51 l0 42 -21 -22 c-19 -21 -27 -22
-97 -17 -42 4 -88 10 -102 15 -23 8 -139 21 -185 21 -32 0 -45 19 -45 65 0 67
-17 52 -31 -28 -7 -39 -15 -66 -17 -60 -3 9 -9 9 -25 1 -21 -11 -21 -11 1 14
l24 25 -59 12 c-32 6 -65 13 -73 16 -8 3 -68 12 -134 20 -66 8 -140 20 -163
26 -40 10 -43 13 -43 44 0 19 3 34 8 34 21 0 142 -30 172 -43 24 -10 41 -12
58 -6 14 5 39 7 57 3 47 -9 54 13 8 26 -37 10 -87 40 -67 40 6 0 14 -3 18 -7z
m656 -3 c-18 -12 -43 -13 -36 -2 2 4 15 8 28 9 18 2 19 0 8 -7z m-2960 -26 c0
-8 7 -22 15 -30 8 -9 15 -21 15 -27 -1 -17 -50 41 -50 59 0 8 5 14 10 14 6 0
10 -7 10 -16z m2870 0 c0 -2 -7 -4 -15 -4 -8 0 -15 4 -15 10 0 5 7 7 15 4 8
-4 15 -8 15 -10z m-2960 -14 c0 -5 -5 -10 -11 -10 -5 0 -7 5 -4 10 3 6 8 10
11 10 2 0 4 -4 4 -10z m590 -21 c0 -5 -4 -9 -10 -9 -5 0 -10 7 -10 16 0 8 5
12 10 9 6 -3 10 -10 10 -16z m-1360 -20 c0 -5 -4 -9 -10 -9 -5 0 -10 7 -10 16
0 8 5 12 10 9 6 -3 10 -10 10 -16z m795 11 c-3 -5 -11 -10 -16 -10 -6 0 -7 5
-4 10 3 6 11 10 16 10 6 0 7 -4 4 -10z m-60 -20 c4 -6 12 -8 18 -4 7 3 3 -2
-7 -10 -11 -9 -25 -16 -30 -16 -17 1 -46 26 -39 33 10 11 51 8 58 -3z m-170
-40 c-22 -23 -26 -33 -17 -42 7 -7 12 -16 12 -22 0 -5 -6 -4 -12 2 -10 10 -21
3 -54 -34 -43 -51 -67 -53 -58 -5 5 23 2 29 -17 34 -22 6 -22 8 -8 22 14 14
20 15 59 1 45 -15 62 -13 59 7 -5 30 23 67 50 67 10 0 4 -11 -14 -30z m85 15
c-7 -9 -15 -13 -19 -10 -3 3 1 10 9 15 21 14 24 12 10 -5z m1430 -25 c0 -31 7
-35 75 -46 36 -5 44 -9 31 -16 -9 -5 -21 -6 -26 -3 -6 3 -10 -1 -10 -9 0 -11
9 -16 29 -16 33 0 66 -29 35 -31 -11 -1 -23 -1 -28 0 -5 1 -33 -4 -63 -10 -46
-11 -56 -10 -65 2 -7 11 -11 11 -15 2 -2 -7 -9 -13 -14 -13 -6 0 -7 5 -4 10 3
6 -1 10 -9 10 -29 0 -56 33 -56 68 l0 33 47 -3 c39 -2 48 0 51 15 3 15 0 18
-17 12 -25 -8 -61 2 -61 17 0 7 14 8 40 4 26 -4 40 -2 40 4 0 6 5 8 10 5 6 -3
10 -19 10 -35z m94 11 c16 -18 16 -18 -9 -14 -25 5 -31 14 -18 26 9 9 8 10 27
-12z m11706 -39 c0 -7 13 -40 30 -73 21 -42 28 -68 24 -89 -5 -21 -1 -33 15
-46 16 -15 21 -30 21 -71 0 -29 -4 -53 -8 -53 -9 0 -26 -29 -42 -75 -9 -23
-13 -26 -20 -15 -8 12 -13 13 -30 3 -23 -15 -31 -16 -28 -5 8 27 -15 79 -41
94 -33 18 -41 15 -41 -18 0 -12 -5 -24 -11 -26 -6 -2 -16 -33 -23 -68 -9 -55
-14 -65 -35 -70 -36 -8 -63 -52 -69 -109 -6 -70 -24 -64 -20 7 2 38 7 56 15
55 7 -2 10 4 7 12 -4 8 -2 15 4 15 5 0 9 14 8 30 -1 17 3 35 10 41 6 5 12 21
12 35 0 15 6 30 13 35 11 7 11 9 1 9 -7 0 1 13 18 30 16 16 30 38 30 49 0 11
9 26 21 34 11 8 22 22 23 32 1 9 8 20 16 25 10 6 10 15 2 38 -6 17 -6 34 -1
39 4 4 9 23 11 41 1 18 10 41 19 50 8 10 15 26 13 36 -2 11 5 20 17 23 10 3
19 10 19 17 0 15 20 -16 20 -32z m-11980 3 c0 -8 -6 -15 -12 -15 -7 0 -5 -5 5
-11 9 -5 17 -18 16 -27 0 -10 -3 -12 -6 -4 -6 15 -29 16 -39 0 -4 -7 -3 -8 4
-4 7 4 12 5 12 2 0 -3 -10 -10 -21 -17 -20 -10 -21 -9 -17 9 4 15 2 19 -8 15
-9 -3 -14 2 -14 15 0 11 -3 27 -6 36 -5 13 2 16 40 16 34 0 46 -4 46 -15z
m490 11 c0 -3 -4 -8 -10 -11 -5 -3 -10 -1 -10 4 0 6 5 11 10 11 6 0 10 -2 10
-4z m56 -11 c18 -15 18 -15 -10 -13 -16 2 -31 9 -34 16 -5 17 20 15 44 -3z
m115 -9 c25 -17 21 -19 -26 -16 -31 2 -55 16 -55 31 0 14 55 4 81 -15z m642 3
c121 -21 144 -28 120 -36 -10 -3 -9 -8 2 -20 9 -8 21 -13 28 -10 7 3 44 -2 82
-10 39 -8 85 -17 103 -20 19 -3 32 -11 32 -20 0 -8 5 -11 11 -7 6 3 15 0 20
-7 4 -8 14 -14 21 -14 7 0 13 -11 14 -25 1 -44 4 -48 32 -54 135 -26 144 -28
131 -37 -10 -6 -5 -9 19 -10 54 -3 57 -4 64 -14 4 -5 8 -38 8 -72 0 -70 4 -73
80 -72 78 1 269 -36 288 -56 16 -17 15 -17 -18 -11 -19 4 -60 8 -90 9 l-55 2
-6 -40 c-3 -22 -7 -34 -8 -27 0 6 -8 12 -17 12 -14 0 -15 -2 -3 -17 9 -11 10
-14 2 -9 -7 4 -22 2 -33 -4 -16 -9 -18 -14 -8 -29 6 -11 20 -17 35 -15 39 4
83 -15 76 -33 -5 -14 0 -15 37 -10 54 7 109 -20 93 -46 -3 -5 6 -1 21 8 31 21
35 19 40 -23 3 -26 0 -32 -15 -32 -10 0 -21 5 -24 10 -4 6 -10 8 -14 6 -12 -8
-81 14 -81 24 0 6 -7 10 -15 10 -8 0 -15 -5 -15 -11 0 -8 -5 -7 -16 2 -9 7
-21 14 -28 15 -6 1 -27 4 -46 7 -29 5 -38 2 -48 -13 -16 -25 -5 -103 13 -96
20 7 15 -44 -6 -57 -27 -17 -24 -35 7 -43 30 -8 46 10 38 41 -3 11 -1 32 5 45
9 24 10 24 12 -10 1 -19 1 -50 0 -67 -2 -18 2 -33 7 -33 5 0 12 -9 15 -19 4
-16 -1 -19 -27 -19 -53 0 -57 -1 -71 -36 -11 -25 -12 -47 -7 -78 5 -24 5 -56
0 -73 -5 -16 -11 -111 -14 -210 -5 -163 -7 -216 -12 -311 -1 -16 -8 -38 -15
-48 -16 -22 -47 -12 -40 15 4 13 0 19 -12 19 -9 0 -19 -9 -22 -20 -4 -14 -14
-20 -34 -20 -16 0 -29 -4 -29 -10 0 -5 -16 -10 -35 -10 -41 0 -48 19 -7 21 15
1 2 5 -28 10 -30 4 -100 15 -155 24 -55 9 -131 20 -170 25 -38 5 -97 14 -130
19 -33 5 -63 7 -67 5 -3 -2 -1 7 5 21 10 20 19 25 52 25 22 0 56 -4 75 -10 25
-7 39 -6 53 3 17 11 19 29 23 172 3 155 6 266 20 728 4 119 4 217 0 217 -3 0
-115 18 -248 39 -134 22 -292 47 -353 56 -60 9 -149 23 -198 31 -103 17 -118
17 -98 5 12 -8 12 -12 -2 -26 -10 -10 -17 -33 -17 -58 -1 -23 -3 -80 -5 -127
-3 -47 -9 -249 -15 -450 -6 -201 -13 -382 -16 -402 -7 -50 9 -78 46 -78 16 0
51 -4 77 -9 26 -5 93 -14 148 -20 55 -7 125 -16 155 -21 30 -5 98 -14 150 -20
141 -17 142 -17 131 -39 -6 -10 -7 -21 -4 -25 9 -9 -107 3 -132 14 -11 5 -54
12 -95 15 -125 11 -133 12 -185 19 -27 4 -68 9 -90 10 -22 2 -86 9 -142 16
l-103 13 0 81 c0 45 7 286 15 536 8 250 15 498 17 550 1 52 4 101 6 108 5 15
17 13 187 -18 55 -10 192 -33 305 -49 113 -17 246 -38 295 -47 168 -30 267
-27 155 4 -52 14 85 5 230 -16 136 -19 182 -21 187 -6 2 6 -42 17 -114 28
-166 25 -253 49 -253 68 0 5 -9 8 -20 8 -13 0 -20 7 -20 20 0 11 -7 20 -15 20
-16 0 -16 20 0 33 6 4 -3 5 -20 1 -16 -4 -35 -11 -42 -16 -8 -6 -15 -3 -22 11
-21 38 -14 43 42 36 58 -8 105 -23 75 -24 -37 -2 -16 -19 30 -25 26 -4 62 -12
80 -17 39 -13 76 -4 52 11 -8 6 -30 10 -47 10 -18 0 -33 5 -33 10 0 6 11 10
24 10 23 0 44 16 34 25 -2 3 -40 11 -83 20 -43 8 -83 19 -89 25 -5 5 -18 10
-28 10 -9 0 -21 8 -27 18 -7 13 -22 17 -63 17 -29 0 -56 4 -60 10 -5 6 -17 6
-37 -2 -24 -9 -31 -8 -35 4 -3 8 -10 12 -15 8 -5 -3 -11 9 -13 27 -4 40 -25
48 -38 13 -9 -25 -13 -26 -51 -20 -22 4 -53 13 -67 21 -15 8 -53 14 -85 14
-43 0 -58 3 -55 13 6 18 59 20 106 4 48 -17 96 -11 88 9 -7 18 -7 18 137 -7z
m1032 -2 c16 -4 14 -5 -7 -6 -38 -1 -64 9 -47 20 7 4 18 4 24 0 5 -5 19 -11
30 -14z m-3115 3 c0 -5 -4 -10 -10 -10 -5 0 -10 5 -10 10 0 6 5 10 10 10 6 0
10 -4 10 -10z m1656 -20 c0 -11 -6 -20 -13 -20 -15 0 -15 2 -7 24 9 22 20 20
20 -4z m-1726 6 c0 -3 -4 -8 -10 -11 -5 -3 -10 -1 -10 4 0 6 5 11 10 11 6 0
10 -2 10 -4z m1665 -12 c8 -3 15 -1 15 5 0 6 4 11 10 11 5 0 7 -7 4 -15 -7
-18 -54 -20 -55 -2 0 9 -2 9 -6 -1 -2 -6 -9 -10 -14 -6 -14 8 1 26 17 20 8 -3
21 -9 29 -12z m-2071 -55 c-12 -13 -20 -16 -22 -9 -3 7 2 16 9 21 25 16 32 9
13 -12z m1992 0 c3 -5 -11 -9 -30 -9 -20 0 -36 4 -36 9 0 20 53 20 66 0z
m1731 -14 c8 -9 9 -15 1 -23 -13 -13 -38 -4 -38 14 0 9 -11 14 -27 14 -22 0
-25 2 -13 10 17 11 59 2 77 -15z m-1824 -7 c15 1 27 -4 27 -10 0 -6 11 -8 27
-5 29 5 83 -16 83 -34 0 -6 -5 -7 -12 -3 -7 5 -26 8 -43 9 -16 0 -36 4 -43 9
-7 4 -20 5 -29 2 -8 -4 -21 -2 -27 2 -16 13 -88 23 -81 11 4 -5 -1 -9 -9 -9
-18 0 -19 2 -10 25 6 14 14 16 48 9 23 -4 53 -7 69 -6z m12634 -15 c-4 -3 -2
-12 4 -20 9 -9 8 -13 0 -13 -6 0 -11 2 -11 4 0 2 -3 11 -6 20 -4 10 -1 16 7
16 7 0 9 -3 6 -7z m-11133 -12 c8 -12 -19 -22 -30 -11 -5 4 -18 10 -29 13 -11
3 -4 5 17 6 20 0 39 -3 42 -8z m-3384 -11 c0 -5 -8 -10 -17 -10 -15 0 -16 2
-3 10 19 12 20 12 20 0z m2083 3 c-7 -2 -19 -2 -25 0 -7 3 -2 5 12 5 14 0 19
-2 13 -5z m1422 -13 c3 -5 -1 -10 -9 -10 -8 0 -16 -10 -18 -22 -3 -21 -5 -20
-20 10 l-16 32 28 0 c16 0 32 -4 35 -10z m-3172 -19 c-13 -12 -16 -12 -23 0
-8 12 -14 11 -41 -5 -23 -13 -30 -15 -27 -5 3 8 11 13 17 12 6 -2 11 1 11 6 0
6 17 9 39 8 33 -1 36 -3 24 -16z m2803 4 c14 -13 12 -16 -11 -25 -35 -13 -62
-13 -71 2 -5 8 -2 9 9 5 10 -4 16 -2 14 6 -1 7 4 11 11 10 6 -2 12 2 12 7 0
15 19 12 36 -5z m11427 -47 c0 -18 -3 -82 -7 -143 -9 -142 -26 -481 -26 -520
-1 -27 -2 -28 -12 -10 -6 11 -25 36 -43 55 -39 42 -71 151 -61 209 5 30 2 42
-14 56 -25 22 -46 8 -55 -38 -14 -71 -15 -71 -47 -22 -16 25 -33 45 -38 45 -4
0 -11 -12 -14 -26 -7 -25 -9 -26 -56 -21 -47 6 -49 5 -53 -21 -2 -15 -3 -8 -1
15 3 33 0 43 -14 47 -20 7 -52 56 -53 83 0 10 -3 13 -6 6 -2 -7 -13 -13 -23
-13 -23 0 -30 -20 -23 -64 5 -32 3 -36 -17 -36 -20 0 -22 4 -17 35 4 23 1 40
-9 49 -19 19 -18 33 5 62 10 13 22 45 25 71 9 63 35 143 47 143 5 0 9 -6 9
-14 0 -7 9 -25 21 -40 21 -27 20 -52 -6 -156 -3 -14 9 5 27 43 18 37 38 67 45
67 7 0 35 -9 63 -20 28 -11 64 -20 80 -20 47 0 127 35 173 76 42 37 82 108 71
125 -3 5 -2 14 2 20 11 18 26 -6 27 -43z m-13335 14 c6 -18 -15 -14 -22 4 -4
10 -1 14 6 12 6 -2 14 -10 16 -16z m92 3 c0 -8 -7 -15 -15 -15 -13 0 -14 3 -3
15 16 18 18 18 18 0z m76 -14 c-10 -16 -33 -14 -39 3 -4 9 1 16 11 19 21 5 36
-8 28 -22z m2196 13 c14 -9 8 -34 -8 -34 -8 0 -13 4 -10 9 4 5 -7 12 -24 16
-47 10 -51 29 -4 20 21 -4 42 -9 46 -11z m-3092 -18 c0 -3 -4 -8 -10 -11 -5
-3 -10 -1 -10 4 0 6 5 11 10 11 6 0 10 -2 10 -4z m60 -16 c0 -5 11 -10 24 -10
24 0 66 -44 66 -69 0 -6 11 -11 25 -11 33 0 32 -18 -1 -30 -18 -7 -30 -7 -39
0 -17 14 -25 2 -25 -39 0 -33 -4 -37 -44 -54 -36 -15 -49 -16 -66 -7 -12 6
-28 9 -37 6 -8 -3 -20 0 -26 7 -13 13 -16 61 -5 73 4 4 0 13 -9 20 -16 11 -14
14 20 34 20 12 37 27 37 33 1 7 15 22 33 34 37 24 47 27 47 13z m2730 -67 c0
-5 26 -9 58 -10 31 -2 73 -10 92 -19 19 -9 42 -20 51 -25 9 -4 35 -13 59 -19
23 -6 39 -14 36 -17 -3 -3 -2 -11 3 -17 11 -12 -13 -13 -185 -2 -149 10 -144
8 -144 67 0 37 4 49 15 49 8 0 15 -3 15 -7z m-760 -33 c0 -5 -2 -10 -4 -10 -3
0 -8 5 -11 10 -3 6 -1 10 4 10 6 0 11 -4 11 -10z m50 -10 c0 -5 -2 -10 -4 -10
-3 0 -8 5 -11 10 -3 6 -1 10 4 10 6 0 11 -4 11 -10z m129 -6 c2 -2 -7 -4 -22
-4 -14 0 -29 5 -32 10 -6 10 42 4 54 -6z m1142 -30 c46 -28 46 -35 -1 -36 -24
-1 -28 -3 -16 -10 9 -5 16 -14 16 -19 0 -6 -4 -7 -10 -4 -5 3 -25 7 -45 9 -37
3 -75 26 -42 26 9 0 16 3 16 8 -4 24 3 41 19 45 9 3 18 5 20 6 1 0 21 -11 43
-25z m-1841 -3 c0 -5 16 -12 35 -15 l36 -7 -7 -62 c-6 -55 -11 -66 -48 -103
-22 -22 -52 -64 -65 -92 -23 -49 -48 -73 -37 -34 6 21 18 198 19 270 l0 52 33
0 c19 0 34 -4 34 -9z m-813 -7 c-3 -3 -12 -4 -19 -1 -8 3 -5 6 6 6 11 1 17 -2
13 -5z m969 -22 c-10 -2 -22 0 -28 6 -6 6 0 7 19 4 21 -5 23 -7 9 -10z m21
-15 c20 0 15 -37 -4 -43 -10 -3 -26 -10 -35 -15 -26 -14 -41 -11 -34 6 3 9 -1
18 -9 21 -8 4 -15 12 -15 19 0 17 27 24 60 17 13 -3 30 -5 37 -5z m1733 3 c0
-5 -10 -10 -22 -10 -19 0 -20 2 -8 10 19 13 30 13 30 0z m-285 -10 c3 -5 2
-10 -4 -10 -5 0 -13 5 -16 10 -3 6 -2 10 4 10 5 0 13 -4 16 -10z m381 -6 c17
-14 17 -15 1 -10 -14 5 -16 2 -8 -12 9 -16 6 -18 -20 -14 -16 2 -29 8 -29 12
0 5 -3 15 -6 24 -8 22 35 22 62 0z m-3623 -20 c-8 -20 -22 -17 -20 5 0 10 7
17 13 14 7 -3 10 -11 7 -19z m1884 10 c-3 -3 -12 -4 -19 -1 -8 3 -5 6 6 6 11
1 17 -2 13 -5z m-1622 -14 c-3 -5 -10 -10 -16 -10 -5 0 -9 5 -9 10 0 6 7 10
16 10 8 0 12 -4 9 -10z m543 1 c8 -4 12 -19 10 -32 -3 -23 -4 -23 -21 9 -17
32 -14 39 11 23z m-708 -26 c-7 -9 -15 -13 -18 -10 -3 2 1 11 8 20 7 9 15 13
18 10 3 -2 -1 -11 -8 -20z m1968 8 c-10 -2 -26 -2 -35 0 -10 3 -2 5 17 5 19 0
27 -2 18 -5z m137 -43 c-5 -31 -11 -40 -22 -36 -8 3 -19 6 -24 6 -6 0 -7 5 -4
11 4 6 -2 13 -14 16 -12 3 -21 13 -21 24 0 14 9 19 43 21 23 2 44 2 45 1 2 -1
1 -20 -3 -43z m1160 34 c17 -4 38 -12 48 -19 15 -11 15 -14 3 -24 -10 -9 -20
-9 -33 -3 -10 6 -40 13 -68 17 -27 4 -59 12 -70 17 -16 7 -15 8 6 3 17 -3 31
1 39 10 7 9 20 13 29 11 9 -3 30 -8 46 -12z m9769 8 c7 -11 -4 -52 -14 -52
-10 0 -21 41 -14 52 3 4 9 8 14 8 5 0 11 -4 14 -8z m-14004 -12 c0 -5 -2 -10
-4 -10 -3 0 -8 5 -11 10 -3 6 -1 10 4 10 6 0 11 -4 11 -10z m3227 -16 c20 -4
21 -9 18 -82 -2 -42 -4 -79 -5 -82 -1 -3 -1 -15 0 -27 2 -25 -14 -28 -60 -13
-23 7 -23 8 10 10 l35 2 -45 11 -45 11 40 6 40 5 -43 7 c-24 3 -46 8 -48 10
-9 10 -11 68 -2 68 5 0 6 5 2 12 -6 10 -9 54 -5 72 1 4 70 -2 108 -10z m-3207
-13 c0 -6 -4 -13 -10 -16 -5 -3 -10 1 -10 9 0 9 5 16 10 16 6 0 10 -4 10 -9z
m14400 0 c0 -5 -7 -14 -15 -21 -8 -7 -15 -18 -15 -25 0 -6 -8 -19 -19 -29 -16
-15 -19 -15 -31 -1 -21 26 -1 68 35 76 44 10 45 10 45 0z m-13392 -26 c-3 -3
-9 2 -12 12 -6 14 -5 15 5 6 7 -7 10 -15 7 -18z m3379 19 c-3 -3 -12 -4 -19
-1 -8 3 -5 6 6 6 11 1 17 -2 13 -5z m-184 -14 c6 0 2 -6 -8 -14 -24 -18 -59
-10 -42 10 7 7 18 11 25 9 8 -3 19 -5 25 -5z m121 -22 c-7 -11 -31 1 -31 16 0
11 4 12 18 3 10 -6 16 -14 13 -19z m-2664 18 c0 -11 -19 -15 -25 -6 -3 5 1 10
9 10 9 0 16 -2 16 -4z m11784 -200 c25 -66 84 -139 107 -133 10 3 23 -1 30 -9
19 -23 36 -16 70 26 18 22 36 37 41 34 4 -3 17 -23 29 -45 14 -29 25 -39 39
-37 10 2 26 -6 34 -17 14 -19 16 -19 60 24 25 25 47 43 49 40 2 -2 16 -26 31
-52 20 -35 32 -47 43 -43 9 4 25 -1 35 -11 19 -17 21 -16 59 25 22 23 41 42
43 42 2 0 18 -22 36 -50 19 -30 39 -50 50 -50 10 0 20 -5 22 -12 7 -20 36 -1
63 42 14 22 29 40 33 40 4 0 20 -27 36 -60 16 -33 36 -60 43 -60 7 0 23 -6 34
-12 18 -12 25 -8 66 37 24 28 47 46 49 40 19 -43 54 -90 77 -103 l29 -17 43
50 c24 27 45 48 48 45 2 -3 18 -30 35 -61 34 -59 71 -92 95 -84 7 3 20 18 30
33 9 15 28 41 42 57 l26 30 -7 -85 c-8 -99 -9 -130 -12 -227 l-2 -73 -44 0
c-25 0 -48 5 -51 10 -3 6 -18 10 -32 10 -27 0 -488 74 -688 111 -205 37 -220
40 -250 49 -16 4 -84 18 -150 30 -66 12 -159 35 -207 51 -48 16 -96 29 -107
29 -13 0 -19 7 -20 23 -4 67 -7 87 -13 87 -3 0 -4 10 0 22 3 15 2 19 -7 14 -9
-6 -11 0 -7 21 2 15 5 28 6 28 2 0 9 141 10 203 0 50 33 43 54 -12z m333 2
c-3 -8 -6 -5 -6 6 -1 11 2 17 5 13 3 -3 4 -12 1 -19z m-10557 -8 c0 -15 -7
-20 -25 -20 -15 0 -25 6 -25 14 0 8 -6 17 -12 19 -7 3 4 6 25 6 31 1 37 -2 37
-19z m10768 -55 c0 -16 -2 -15 -8 5 -4 14 -8 34 -8 45 0 16 2 15 8 -5 4 -14 8
-34 8 -45z m-9841 23 c-3 -8 -6 -5 -6 6 -1 11 2 17 5 13 3 -3 4 -12 1 -19z
m-937 -8 c12 -8 11 -10 -7 -10 -13 0 -23 5 -23 10 0 13 11 13 30 0z m10992
-96 c-2 -14 -9 -21 -17 -17 -18 6 -31 66 -16 71 6 2 11 13 12 25 1 15 5 8 13
-17 7 -22 11 -50 8 -62z m-10265 54 c-3 -7 -5 -2 -5 12 0 14 2 19 5 13 2 -7 2
-19 0 -25z m-2597 2 c-6 -11 -20 -24 -33 -30 l-22 -11 23 17 c12 9 22 23 22
30 0 8 5 14 10 14 7 0 7 -6 0 -20z m2884 -5 c3 -9 0 -15 -8 -15 -8 0 -16 7
-20 15 -3 9 0 15 8 15 8 0 16 -7 20 -15z m-162 -6 c14 -6 28 -19 31 -29 4 -16
-1 -18 -47 -14 -85 7 -106 10 -113 19 -5 4 -2 5 5 1 9 -5 15 -1 18 10 6 23 64
29 106 13z m266 -32 c4 -32 -23 -43 -64 -26 -16 7 -32 12 -36 11 -3 -1 -9 6
-12 14 -5 12 -1 14 17 8 12 -3 19 -3 15 1 -12 13 35 32 57 25 12 -4 21 -18 23
-33z m10071 -27 c1 -20 -1 -22 -9 -10 -5 8 -9 31 -9 50 1 32 2 33 9 10 4 -14
8 -36 9 -50z m-11182 54 c-3 -3 -12 -4 -19 -1 -8 3 -5 6 6 6 11 1 17 -2 13 -5z
m1213 -36 c0 -4 -9 -8 -21 -8 -11 0 -17 5 -14 10 3 6 2 10 -3 10 -5 0 -9 -15
-7 -32 1 -18 -2 -40 -6 -49 -9 -18 25 -39 64 -39 12 0 55 -7 94 -15 40 -8 84
-16 98 -17 33 -3 32 -11 -5 -25 -25 -9 -30 -9 -30 4 0 13 -3 13 -15 3 -8 -7
-15 -9 -15 -4 0 5 -4 2 -10 -6 -9 -15 -7 -16 -97 27 -18 9 -41 13 -52 10 -22
-5 -93 34 -73 40 6 3 12 21 12 41 0 21 3 47 6 58 5 20 9 21 40 11 19 -6 34
-14 34 -19z m10189 -49 c1 -4 -8 -9 -19 -12 -15 -4 -20 0 -20 15 0 10 5 16 10
13 6 -3 10 2 11 12 0 16 1 16 9 -2 5 -11 9 -23 9 -26z m-10637 -1 c29 -6 60
-11 68 -10 29 5 -13 -15 -50 -23 -19 -4 -40 -15 -47 -24 -11 -14 -14 -14 -23
-1 -14 22 -12 30 8 30 16 1 16 1 0 11 -10 5 -18 14 -18 19 0 12 -2 12 62 -2z
m173 -42 c-9 -6 -20 -28 -25 -46 l-8 -35 -1 41 c-1 47 0 49 30 51 19 2 20 1 4
-11z m-3123 -51 c0 -5 -5 -11 -11 -13 -6 -2 -11 4 -11 13 0 9 5 15 11 13 6 -2
11 -8 11 -13z m11915 -62 c8 -10 12 -12 8 -5 -9 18 41 15 199 -13 109 -19 142
-29 153 -45 11 -15 21 -18 45 -13 l31 6 -7 -58 c-4 -33 -9 -61 -11 -63 -2 -3
-57 9 -122 26 -65 17 -152 35 -193 41 -41 6 -86 13 -100 17 -14 3 -44 8 -68
11 -37 5 -41 8 -30 21 11 13 10 15 -10 10 -12 -4 -20 -2 -16 3 3 5 12 9 20 9
8 0 14 5 14 11 0 5 4 8 9 5 5 -3 14 1 20 8 10 12 8 13 -11 9 -13 -3 -20 -2
-16 2 4 5 3 14 -3 22 -9 10 -3 13 31 13 29 0 48 -6 57 -17z m-11780 -15 c-3
-8 -6 -5 -6 6 -1 11 2 17 5 13 3 -3 4 -12 1 -19z m12223 -17 c0 -4 -7 -8 -15
-8 -8 0 -15 6 -15 13 0 8 6 11 15 8 8 -4 15 -9 15 -13z m-11004 -38 c4 -16 13
-38 20 -50 8 -13 12 -23 8 -23 -4 0 -1 -7 6 -15 11 -13 8 -15 -19 -15 -26 0
-31 4 -31 25 0 14 6 25 13 26 9 0 9 2 -1 6 -6 2 -10 8 -7 13 3 5 1 20 -5 34
-6 16 -6 26 0 26 5 0 12 -12 16 -27z m1481 -55 c-3 -7 -5 -2 -5 12 0 14 2 19
5 13 2 -7 2 -19 0 -25z m9767 6 c21 -8 42 -12 46 -9 11 7 20 -20 20 -60 0 -47
-14 -50 -34 -8 l-17 36 -27 -29 c-26 -28 -30 -29 -92 -24 -57 4 -65 7 -64 25
1 11 2 37 2 57 l2 38 63 -7 c34 -3 79 -12 101 -19z m181 -46 c23 -10 30 -21
26 -42 -1 -4 3 -14 9 -21 15 -18 -22 -24 -72 -12 -40 10 -44 19 -28 61 10 29
26 32 65 14z m-867 -21 c32 -8 48 -7 66 2 42 23 300 -25 343 -63 9 -8 11 -39
6 -113 l-6 -102 -46 -6 c-25 -3 -62 -8 -81 -11 -78 -10 -230 -14 -230 -5 0 5
8 12 18 14 12 3 11 5 -6 6 -18 1 -23 6 -20 24 1 13 -7 35 -19 50 -20 26 -21
26 -26 6 -8 -29 -31 -19 -35 14 -2 15 -7 27 -12 27 -4 0 -6 8 -4 18 4 12 -4
21 -25 29 -24 8 -31 8 -32 0 0 -7 -5 -1 -10 12 -6 15 -15 21 -24 17 -9 -3 -15
0 -15 9 0 7 6 15 13 18 6 2 5 3 -4 2 -9 -1 -22 1 -28 4 -16 11 90 71 114 65
11 -3 39 -11 63 -17z m-10514 -3 c9 -3 16 -12 16 -19 0 -7 6 -16 13 -18 19 -8
-34 -6 -68 3 l-30 8 35 2 c29 2 30 4 10 7 -37 7 -49 23 -18 23 15 0 33 -3 42
-6z m-1239 -69 c-3 -69 -7 -81 -24 -71 -13 8 -12 106 0 106 5 0 9 7 9 15 0 8
4 15 8 15 5 0 8 -29 7 -65z m215 51 c0 -3 -4 -8 -10 -11 -5 -3 -10 -1 -10 4 0
6 5 11 10 11 6 0 10 -2 10 -4z m-330 -10 c0 -3 -4 -8 -10 -11 -5 -3 -10 -1
-10 4 0 6 5 11 10 11 6 0 10 -2 10 -4z m1348 -33 c-10 -2 -26 -2 -35 0 -10 3
-2 5 17 5 19 0 27 -2 18 -5z m59 -9 c-3 -3 -12 -4 -19 -1 -8 3 -5 6 6 6 11 1
17 -2 13 -5z m11107 -14 c4 -5 1 -33 -8 -63 -9 -30 -16 -64 -16 -75 0 -26 -5
-29 -68 -38 l-52 -7 0 49 c0 27 3 72 6 101 l7 52 61 -6 c33 -3 65 -9 70 -13z
m-12502 -86 c-13 -23 -3 -56 14 -50 19 7 18 -8 -1 -24 -11 -9 -18 -10 -28 -1
-8 6 -17 8 -20 4 -4 -3 -7 1 -7 10 0 10 -7 17 -16 17 -23 0 -10 49 20 75 13
11 27 29 32 40 7 16 9 13 12 -17 2 -21 -1 -45 -6 -54z m1351 79 c-7 -2 -19 -2
-25 0 -7 3 -2 5 12 5 14 0 19 -2 13 -5z m24 -29 c-3 -3 -12 -4 -19 -1 -8 3 -5
6 6 6 11 1 17 -2 13 -5z m10403 -4 c0 -5 -2 -10 -4 -10 -3 0 -8 5 -11 10 -3 6
-1 10 4 10 6 0 11 -4 11 -10z m1005 -56 c30 -4 55 -10 55 -13 0 -3 -13 -15
-28 -26 -22 -17 -41 -20 -110 -19 -46 1 -84 3 -86 5 -2 2 -6 22 -8 44 -2 29 1
39 10 37 7 -1 15 4 18 12 4 11 14 9 50 -10 25 -13 69 -27 99 -30z m-12585 1
c0 -8 8 -15 18 -15 24 0 43 -34 46 -84 2 -22 6 -57 11 -78 6 -31 4 -37 -14
-43 -16 -5 -21 -15 -21 -39 0 -30 -4 -34 -32 -40 -36 -7 -50 7 -38 38 4 12 10
47 14 79 6 48 5 57 -8 57 -20 0 -20 5 0 36 12 17 15 36 10 64 -4 25 -2 40 4
40 5 0 10 -7 10 -15z m11673 -45 c3 -11 1 -20 -4 -20 -5 0 -9 9 -9 20 0 11 2
20 4 20 2 0 6 -9 9 -20z m653 -17 c-11 -11 -19 6 -11 24 8 17 8 17 12 0 3 -10
2 -21 -1 -24z m-9759 5 c-3 -8 -6 -5 -6 6 -1 11 2 17 5 13 3 -3 4 -12 1 -19z
m9813 6 c0 -8 -5 -12 -10 -9 -6 4 -8 11 -5 16 9 14 15 11 15 -7z m267 10 c-3
-3 -12 -4 -19 -1 -8 3 -5 6 6 6 11 1 17 -2 13 -5z m919 -21 c-2 -16 -4 -47 -5
-71 0 -24 -4 -41 -8 -39 -11 7 -3 137 7 137 5 0 7 -12 6 -27z m-12298 -80
c-10 -2 -28 -2 -40 0 -13 2 -5 4 17 4 22 1 32 -1 23 -4z m-1510 -77 c3 -12 -1
-17 -10 -14 -7 3 -15 13 -16 22 -3 12 1 17 10 14 7 -3 15 -13 16 -22z m2798
-142 c-3 -8 -10 -12 -16 -9 -14 9 -12 42 3 48 14 5 21 -17 13 -39z m-2796 29
c0 -3 -7 -14 -15 -23 -14 -16 -13 -17 16 -18 37 -1 53 -12 18 -12 -14 0 -30
-5 -36 -11 -29 -29 -39 23 -11 59 11 13 28 16 28 5z m278 -34 c2 -19 9 -40 15
-47 15 -19 15 -101 0 -114 -17 -14 -34 -79 -25 -92 5 -6 8 -18 7 -26 -1 -8 -3
-23 -3 -32 -1 -10 -7 -18 -12 -18 -11 0 -14 7 -24 53 -5 19 -13 27 -29 27 -19
1 -20 2 -5 11 13 7 16 17 11 39 -3 18 0 36 7 45 9 10 9 15 1 15 -6 0 -10 9 -8
20 4 27 17 38 17 14 1 -16 4 -15 25 9 31 35 31 47 2 47 -47 0 -60 37 -25 70
29 27 42 21 46 -21z m2233 -81 c64 -19 49 -25 -47 -19 -7 1 -14 8 -18 16 -7
18 12 19 65 3z m328 -32 c14 -8 30 -12 37 -9 7 2 25 -2 41 -11 16 -9 21 -15
13 -16 -9 0 -21 5 -28 12 -9 9 -16 7 -32 -7 -15 -13 -19 -14 -15 -4 4 11 -3
15 -27 17 -18 1 -42 5 -53 9 l-20 6 20 8 c28 11 37 10 64 -5z m-2839 -20 c0
-11 -19 -15 -25 -6 -3 5 1 10 9 10 9 0 16 -2 16 -4z m35 -26 c3 -5 1 -10 -4
-10 -6 0 -11 5 -11 10 0 6 2 10 4 10 3 0 8 -4 11 -10z m140 -187 c5 -17 2 -23
-9 -23 -11 0 -16 10 -16 32 0 34 13 29 25 -9z m-58 -135 c-3 -8 -6 -5 -6 6 -1
11 2 17 5 13 3 -3 4 -12 1 -19z m160 -23 c-2 -5 -11 -11 -20 -13 -14 -3 -16
13 -7 58 0 3 7 -4 15 -15 9 -10 14 -24 12 -30z m-87 10 c0 -18 -5 -25 -19 -25
-17 0 -18 3 -8 25 15 32 27 32 27 0z m2878 -55 c1 -23 0 -23 -8 -5 -5 11 -8
36 -8 55 l0 35 8 -30 c4 -16 8 -41 8 -55z m-141 8 c-2 -13 -4 -5 -4 17 -1 22
1 32 4 23 2 -10 2 -28 0 -40z m-2736 -71 c-8 -8 -11 -4 -11 14 0 33 14 47 18
19 2 -12 -1 -27 -7 -33z m2736 -19 c-3 -8 -6 -5 -6 6 -1 11 2 17 5 13 3 -3 4
-12 1 -19z m-2942 -57 c-10 -34 -25 -24 -25 16 0 34 1 36 16 21 10 -10 14 -23
9 -37z m258 24 c4 -8 2 -17 -3 -20 -6 -4 -10 3 -10 14 0 25 6 27 13 6z m1374
-21 c-3 -3 -12 -4 -19 -1 -8 3 -5 6 6 6 11 1 17 -2 13 -5z m1299 -111 c2 -15
-1 -89 -6 -163 -5 -74 -12 -256 -15 -405 -3 -148 -12 -376 -19 -505 -15 -268
-16 -315 -16 -423 1 -81 -6 -109 -21 -86 -5 8 -7 95 -4 194 7 269 14 580 21
865 7 339 20 526 36 544 16 17 20 14 24 -21z m174 7 c0 -5 -4 -10 -10 -10 -5
0 -10 5 -10 10 0 6 5 10 10 10 6 0 10 -4 10 -10z m-108 -162 c-6 -6 -15 -8
-19 -4 -4 4 -1 11 7 16 19 12 27 3 12 -12z m408 -18 c0 -5 -4 -10 -10 -10 -5
0 -10 5 -10 10 0 6 5 10 10 10 6 0 10 -4 10 -10z m-3152 -62 c-2 -6 -10 -14
-16 -16 -7 -2 -10 2 -6 12 7 18 28 22 22 4z m2732 -78 c0 -5 -2 -10 -4 -10 -3
0 -8 5 -11 10 -3 6 -1 10 4 10 6 0 11 -4 11 -10z m-2940 -49 c0 -14 -18 -23
-30 -16 -6 4 -8 11 -5 16 8 12 35 12 35 0z m40 1 c0 -13 -12 -22 -22 -16 -10
6 -1 24 13 24 5 0 9 -4 9 -8z m2933 -119 c-7 -2 -21 -2 -30 0 -10 3 -4 5 12 5
17 0 24 -2 18 -5z m-3078 -32 c-3 -6 -11 -11 -17 -11 -6 0 -6 6 2 15 14 17 26
13 15 -4z m335 -60 c0 -6 -4 -13 -10 -16 -5 -3 -10 1 -10 9 0 9 5 16 10 16 6
0 10 -4 10 -9z m-213 -73 c-3 -8 -6 -5 -6 6 -1 11 2 17 5 13 3 -3 4 -12 1 -19z
m2266 -155 c-4 -32 -6 -78 -5 -101 1 -24 -3 -62 -8 -84 -8 -29 -8 -43 0 -53 8
-10 8 -29 -2 -75 -8 -41 -9 -66 -2 -78 6 -11 7 -57 2 -127 -5 -60 -10 -178
-12 -262 -3 -83 -9 -160 -14 -170 -6 -10 -10 -21 -11 -25 -1 -5 -4 -8 -8 -8
-9 0 -10 289 -2 475 3 72 2 137 -3 145 -5 10 -7 11 -8 2 0 -27 -73 4 -76 33
-1 6 -4 23 -8 38 -7 28 -6 28 38 26 25 -2 49 1 53 5 4 4 8 53 9 109 2 170 10
199 57 206 5 0 5 -25 0 -56z m652 -23 c-3 -5 -10 -10 -16 -10 -5 0 -9 5 -9 10
0 6 7 10 16 10 8 0 12 -4 9 -10z m-2865 -40 c0 -5 -4 -10 -10 -10 -5 0 -10 5
-10 10 0 6 5 10 10 10 6 0 10 -4 10 -10z m90 -120 c3 -40 1 -45 -13 -26 -8 10
-12 30 -9 43 5 29 19 18 22 -17z m1950 -446 c0 -25 -4 -43 -8 -40 -7 4 -4 86
4 86 2 0 4 -21 4 -46z m900 -54 c0 -5 -4 -10 -10 -10 -5 0 -10 5 -10 10 0 6 5
10 10 10 6 0 10 -4 10 -10z m-910 -96 c0 -8 -5 -12 -10 -9 -6 4 -8 11 -5 16 9
14 15 11 15 -7z m710 -109 c0 -19 -4 -35 -10 -35 -11 0 -13 30 -4 54 10 25 14
19 14 -19z m-2 -312 c-1 -131 -6 -210 -14 -233 -11 -30 -12 -9 -8 140 2 96 4
201 4 233 0 31 4 57 10 57 6 0 9 -74 8 -197z m-570 116 c2 -35 0 -80 -4 -99
-5 -30 -7 -32 -14 -15 -8 21 -14 109 -12 158 1 18 7 27 15 25 7 -3 13 -29 15
-69z m-12 -185 c-7 -51 -16 -55 -16 -6 0 23 5 42 10 42 6 0 8 -16 6 -36z"/>
<path d="M18601 5773 c-14 -15 -15 -27 -12 -78 1 -19 24 -19 61 0 33 17 38 40
14 73 -18 26 -43 28 -63 5z"/>
<path d="M18586 5621 c-4 -7 -5 -15 -2 -18 9 -9 19 4 14 18 -4 11 -6 11 -12 0z"/>
<path d="M18510 5551 c0 -13 26 -32 33 -24 8 7 -11 33 -24 33 -5 0 -9 -4 -9
-9z"/>
<path d="M8515 5010 c-4 -6 6 -10 22 -10 22 0 25 2 13 10 -19 12 -27 12 -35 0z"/>
<path d="M6650 4960 c0 -5 5 -10 10 -10 6 0 10 5 10 10 0 6 -4 10 -10 10 -5 0
-10 -4 -10 -10z"/>
<path d="M7750 4970 c0 -5 12 -10 28 -9 24 0 25 1 7 9 -27 12 -35 12 -35 0z"/>
<path d="M8210 4750 c0 -5 5 -10 11 -10 5 0 7 5 4 10 -3 6 -8 10 -11 10 -2 0
-4 -4 -4 -10z"/>
<path d="M7090 4704 c0 -8 5 -12 10 -9 6 3 10 10 10 16 0 5 -4 9 -10 9 -5 0
-10 -7 -10 -16z"/>
<path d="M7528 4613 c6 -2 18 -2 25 0 6 3 1 5 -13 5 -14 0 -19 -2 -12 -5z"/>
<path d="M7578 4603 c6 -2 18 -2 25 0 6 3 1 5 -13 5 -14 0 -19 -2 -12 -5z"/>
<path d="M7796 4601 c-4 -7 -5 -15 -2 -18 9 -9 19 4 14 18 -4 11 -6 11 -12 0z"/>
<path d="M8481 4484 c0 -11 3 -14 6 -6 3 7 2 16 -1 19 -3 4 -6 -2 -5 -13z"/>
<path d="M8147 4353 c-2 -5 -7 -20 -10 -34 l-7 -26 127 -18 127 -17 18 22 c19
23 23 40 11 40 -5 0 -62 9 -128 20 -139 23 -133 22 -138 13z"/>
<path d="M7095 3479 c-4 -6 -5 -13 -2 -16 7 -7 27 6 27 18 0 12 -17 12 -25 -2z"/>
<path d="M8105 3349 c-10 -15 1 -23 20 -15 9 3 13 10 10 16 -8 13 -22 13 -30
-1z"/>
<path d="M17650 3576 c0 -9 30 -14 35 -6 4 6 -3 10 -14 10 -12 0 -21 -2 -21
-4z"/>
<path d="M8020 1280 c0 -5 5 -10 10 -10 6 0 10 5 10 10 0 6 -4 10 -10 10 -5 0
-10 -4 -10 -10z"/>
</g>
</svg>
